<svg width="1361" height="1133" viewBox="0 0 1361 1133" fill="none" xmlns="http://www.w3.org/2000/svg">
<g opacity="0.2" filter="url(#filter0_f_175_188)">
<ellipse cx="690.5" cy="382" rx="670.5" ry="350" fill="#35875D"/>
</g>
<path d="M211.035 618C212.53 618 213.662 618.63 214.431 619.891C215.213 621.138 215.605 622.953 215.605 625.336C215.605 627.719 215.213 629.541 214.431 630.802C213.662 632.063 212.53 632.693 211.035 632.693C209.554 632.693 208.422 632.063 207.639 630.802C206.856 629.541 206.465 627.719 206.465 625.336C206.465 622.967 206.856 621.152 207.639 619.891C208.422 618.63 209.554 618 211.035 618ZM207.953 625.336C207.953 627.026 208.107 628.35 208.415 629.306L213.068 620.099C212.579 619.448 211.901 619.122 211.035 619.122C210.071 619.122 209.316 619.635 208.771 620.66C208.226 621.672 207.953 623.23 207.953 625.336ZM211.035 631.55C212.013 631.55 212.775 631.044 213.32 630.033C213.865 629.008 214.137 627.442 214.137 625.336C214.137 623.549 213.963 622.163 213.613 621.18L208.96 630.469C209.463 631.19 210.154 631.55 211.035 631.55Z" fill="url(#paint0_linear_175_188)" fill-opacity="0.6"/>
<path d="M212.293 655.135H215.374V656.236H207.387V655.135H210.951V643.455L207.555 645.471L206.968 644.536L211.161 641.959H212.293V655.135Z" fill="url(#paint1_linear_175_188)" fill-opacity="0.6"/>
<path d="M211.035 665.502C212.53 665.502 213.662 666.133 214.431 667.393C215.213 668.64 215.605 670.455 215.605 672.838C215.605 675.221 215.213 677.043 214.431 678.304C213.662 679.565 212.53 680.195 211.035 680.195C209.554 680.195 208.422 679.565 207.639 678.304C206.856 677.043 206.465 675.221 206.465 672.838C206.465 670.469 206.856 668.654 207.639 667.393C208.422 666.133 209.554 665.502 211.035 665.502ZM207.953 672.838C207.953 674.529 208.107 675.852 208.415 676.808L213.068 667.601C212.579 666.95 211.901 666.624 211.035 666.624C210.071 666.624 209.316 667.137 208.771 668.162C208.226 669.174 207.953 670.732 207.953 672.838ZM211.035 679.052C212.013 679.052 212.775 678.546 213.32 677.535C213.865 676.51 214.137 674.944 214.137 672.838C214.137 671.051 213.963 669.665 213.613 668.682L208.96 677.971C209.463 678.692 210.154 679.052 211.035 679.052Z" fill="url(#paint2_linear_175_188)" fill-opacity="0.6"/>
<path d="M212.293 702.637H215.374V703.738H207.387V702.637H210.951V690.957L207.555 692.973L206.968 692.038L211.161 689.461H212.293V702.637Z" fill="url(#paint3_linear_175_188)" fill-opacity="0.6"/>
<path d="M212.293 726.388H215.374V727.489H207.387V726.388H210.951V714.708L207.555 716.724L206.968 715.789L211.161 713.212H212.293V726.388Z" fill="url(#paint4_linear_175_188)" fill-opacity="0.6"/>
<path d="M211.035 736.755C212.53 736.755 213.662 737.386 214.431 738.646C215.213 739.893 215.605 741.708 215.605 744.091C215.605 746.474 215.213 748.296 214.431 749.557C213.662 750.818 212.53 751.448 211.035 751.448C209.554 751.448 208.422 750.818 207.639 749.557C206.856 748.296 206.465 746.474 206.465 744.091C206.465 741.722 206.856 739.907 207.639 738.646C208.422 737.386 209.554 736.755 211.035 736.755ZM207.953 744.091C207.953 745.782 208.107 747.105 208.415 748.061L213.068 738.854C212.579 738.203 211.901 737.878 211.035 737.878C210.071 737.878 209.316 738.39 208.771 739.415C208.226 740.427 207.953 741.985 207.953 744.091ZM211.035 750.305C212.013 750.305 212.775 749.8 213.32 748.788C213.865 747.763 214.137 746.197 214.137 744.091C214.137 742.304 213.963 740.919 213.613 739.935L208.96 749.225C209.463 749.945 210.154 750.305 211.035 750.305Z" fill="url(#paint5_linear_175_188)" fill-opacity="0.6"/>
<path d="M212.293 773.89H215.374V774.992H207.387V773.89H210.951V762.21L207.555 764.226L206.968 763.291L211.161 760.714H212.293V773.89Z" fill="url(#paint6_linear_175_188)" fill-opacity="0.6"/>
<path d="M211.035 784.257C212.53 784.257 213.662 784.888 214.431 786.149C215.213 787.396 215.605 789.211 215.605 791.594C215.605 793.977 215.213 795.798 214.431 797.059C213.662 798.32 212.53 798.95 211.035 798.95C209.554 798.95 208.422 798.32 207.639 797.059C206.856 795.798 206.465 793.977 206.465 791.594C206.465 789.224 206.856 787.409 207.639 786.149C208.422 784.888 209.554 784.257 211.035 784.257ZM207.953 791.594C207.953 793.284 208.107 794.607 208.415 795.563L213.068 786.356C212.579 785.705 211.901 785.38 211.035 785.38C210.071 785.38 209.316 785.892 208.771 786.918C208.226 787.929 207.953 789.488 207.953 791.594ZM211.035 797.807C212.013 797.807 212.775 797.302 213.32 796.29C213.865 795.265 214.137 793.699 214.137 791.594C214.137 789.806 213.963 788.421 213.613 787.437L208.96 796.727C209.463 797.447 210.154 797.807 211.035 797.807Z" fill="url(#paint7_linear_175_188)" fill-opacity="0.6"/>
<path d="M211.035 808.008C212.53 808.008 213.662 808.639 214.431 809.9C215.213 811.147 215.605 812.962 215.605 815.345C215.605 817.728 215.213 819.549 214.431 820.81C213.662 822.071 212.53 822.701 211.035 822.701C209.554 822.701 208.422 822.071 207.639 820.81C206.856 819.549 206.465 817.728 206.465 815.345C206.465 812.975 206.856 811.16 207.639 809.9C208.422 808.639 209.554 808.008 211.035 808.008ZM207.953 815.345C207.953 817.035 208.107 818.358 208.415 819.314L213.068 810.107C212.579 809.456 211.901 809.131 211.035 809.131C210.071 809.131 209.316 809.643 208.771 810.669C208.226 811.68 207.953 813.239 207.953 815.345ZM211.035 821.558C212.013 821.558 212.775 821.053 213.32 820.041C213.865 819.016 214.137 817.451 214.137 815.345C214.137 813.557 213.963 812.172 213.613 811.188L208.96 820.478C209.463 821.198 210.154 821.558 211.035 821.558Z" fill="url(#paint8_linear_175_188)" fill-opacity="0.6"/>
<path d="M212.293 845.143H215.374V846.245H207.387V845.143H210.951V833.464L207.555 835.48L206.968 834.544L211.161 831.967H212.293V845.143Z" fill="url(#paint9_linear_175_188)" fill-opacity="0.6"/>
<path d="M211.035 855.511C212.53 855.511 213.662 856.141 214.431 857.402C215.213 858.649 215.605 860.464 215.605 862.847C215.605 865.23 215.213 867.052 214.431 868.312C213.662 869.573 212.53 870.204 211.035 870.204C209.554 870.204 208.422 869.573 207.639 868.312C206.856 867.052 206.465 865.23 206.465 862.847C206.465 860.478 206.856 858.663 207.639 857.402C208.422 856.141 209.554 855.511 211.035 855.511ZM207.953 862.847C207.953 864.537 208.107 865.86 208.415 866.816L213.068 857.61C212.579 856.958 211.901 856.633 211.035 856.633C210.071 856.633 209.316 857.145 208.771 858.171C208.226 859.182 207.953 860.741 207.953 862.847ZM211.035 869.061C212.013 869.061 212.775 868.555 213.32 867.543C213.865 866.518 214.137 864.953 214.137 862.847C214.137 861.059 213.963 859.674 213.613 858.69L208.96 867.98C209.463 868.7 210.154 869.061 211.035 869.061Z" fill="url(#paint10_linear_175_188)" fill-opacity="0.6"/>
<path d="M212.293 892.645H215.374V893.747H207.387V892.645H210.951V880.966L207.555 882.982L206.968 882.046L211.161 879.469H212.293V892.645Z" fill="url(#paint11_linear_175_188)" fill-opacity="0.6"/>
<path d="M212.293 916.396H215.374V917.498H207.387V916.396H210.951V904.717L207.555 906.733L206.968 905.798L211.161 903.221H212.293V916.396Z" fill="url(#paint12_linear_175_188)" fill-opacity="0.6"/>
<path d="M249.965 665.502C251.46 665.502 252.592 666.133 253.361 667.393C254.144 668.64 254.535 670.455 254.535 672.838C254.535 675.221 254.144 677.043 253.361 678.304C252.592 679.565 251.46 680.195 249.965 680.195C248.484 680.195 247.352 679.565 246.569 678.304C245.787 677.043 245.395 675.221 245.395 672.838C245.395 670.469 245.787 668.654 246.569 667.393C247.352 666.133 248.484 665.502 249.965 665.502ZM246.884 672.838C246.884 674.529 247.037 675.852 247.345 676.808L251.998 667.601C251.509 666.95 250.832 666.624 249.965 666.624C249.001 666.624 248.246 667.137 247.701 668.162C247.156 669.174 246.884 670.732 246.884 672.838ZM249.965 679.052C250.943 679.052 251.705 678.546 252.25 677.535C252.795 676.51 253.068 674.944 253.068 672.838C253.068 671.051 252.893 669.665 252.543 668.682L247.89 677.971C248.393 678.692 249.085 679.052 249.965 679.052Z" fill="url(#paint13_linear_175_188)" fill-opacity="0.6"/>
<path d="M251.223 702.637H254.304V703.738H246.318V702.637H249.881V690.957L246.485 692.973L245.898 692.038L250.091 689.461H251.223V702.637Z" fill="url(#paint14_linear_175_188)" fill-opacity="0.6"/>
<path d="M249.965 713.004C251.46 713.004 252.592 713.635 253.361 714.895C254.144 716.142 254.535 717.957 254.535 720.34C254.535 722.723 254.144 724.545 253.361 725.806C252.592 727.067 251.46 727.697 249.965 727.697C248.484 727.697 247.352 727.067 246.569 725.806C245.787 724.545 245.395 722.723 245.395 720.34C245.395 717.971 245.787 716.156 246.569 714.895C247.352 713.635 248.484 713.004 249.965 713.004ZM246.884 720.34C246.884 722.031 247.037 723.354 247.345 724.31L251.998 715.103C251.509 714.452 250.832 714.126 249.965 714.126C249.001 714.126 248.246 714.639 247.701 715.664C247.156 716.676 246.884 718.234 246.884 720.34ZM249.965 726.554C250.943 726.554 251.705 726.049 252.25 725.037C252.795 724.012 253.068 722.446 253.068 720.34C253.068 718.553 252.893 717.168 252.543 716.184L247.89 725.474C248.393 726.194 249.085 726.554 249.965 726.554Z" fill="url(#paint15_linear_175_188)" fill-opacity="0.6"/>
<path d="M249.965 736.755C251.46 736.755 252.592 737.386 253.361 738.646C254.144 739.893 254.535 741.708 254.535 744.091C254.535 746.474 254.144 748.296 253.361 749.557C252.592 750.818 251.46 751.448 249.965 751.448C248.484 751.448 247.352 750.818 246.569 749.557C245.787 748.296 245.395 746.474 245.395 744.091C245.395 741.722 245.787 739.907 246.569 738.646C247.352 737.386 248.484 736.755 249.965 736.755ZM246.884 744.091C246.884 745.782 247.037 747.105 247.345 748.061L251.998 738.854C251.509 738.203 250.832 737.878 249.965 737.878C249.001 737.878 248.246 738.39 247.701 739.415C247.156 740.427 246.884 741.985 246.884 744.091ZM249.965 750.305C250.943 750.305 251.705 749.8 252.25 748.788C252.795 747.763 253.068 746.197 253.068 744.091C253.068 742.304 252.893 740.919 252.543 739.935L247.89 749.225C248.393 749.945 249.085 750.305 249.965 750.305Z" fill="url(#paint16_linear_175_188)" fill-opacity="0.6"/>
<path d="M251.223 773.89H254.304V774.992H246.318V773.89H249.881V762.21L246.485 764.226L245.898 763.291L250.091 760.714H251.223V773.89Z" fill="url(#paint17_linear_175_188)" fill-opacity="0.6"/>
<path d="M249.965 784.257C251.46 784.257 252.592 784.888 253.361 786.149C254.144 787.396 254.535 789.211 254.535 791.594C254.535 793.977 254.144 795.798 253.361 797.059C252.592 798.32 251.46 798.95 249.965 798.95C248.484 798.95 247.352 798.32 246.569 797.059C245.787 795.798 245.395 793.977 245.395 791.594C245.395 789.224 245.787 787.409 246.569 786.149C247.352 784.888 248.484 784.257 249.965 784.257ZM246.884 791.594C246.884 793.284 247.037 794.607 247.345 795.563L251.998 786.356C251.509 785.705 250.832 785.38 249.965 785.38C249.001 785.38 248.246 785.892 247.701 786.918C247.156 787.929 246.884 789.488 246.884 791.594ZM249.965 797.807C250.943 797.807 251.705 797.302 252.25 796.29C252.795 795.265 253.068 793.699 253.068 791.594C253.068 789.806 252.893 788.421 252.543 787.437L247.89 796.727C248.393 797.447 249.085 797.807 249.965 797.807Z" fill="url(#paint18_linear_175_188)" fill-opacity="0.6"/>
<path d="M251.223 821.392H254.304V822.494H246.318V821.392H249.881V809.713L246.485 811.728L245.898 810.793L250.091 808.216H251.223V821.392Z" fill="url(#paint19_linear_175_188)" fill-opacity="0.6"/>
<path d="M249.965 831.76C251.46 831.76 252.592 832.39 253.361 833.651C254.144 834.898 254.535 836.713 254.535 839.096C254.535 841.479 254.144 843.301 253.361 844.561C252.592 845.822 251.46 846.453 249.965 846.453C248.484 846.453 247.352 845.822 246.569 844.561C245.787 843.301 245.395 841.479 245.395 839.096C245.395 836.726 245.787 834.911 246.569 833.651C247.352 832.39 248.484 831.76 249.965 831.76ZM246.884 839.096C246.884 840.786 247.037 842.109 247.345 843.065L251.998 833.859C251.509 833.207 250.832 832.882 249.965 832.882C249.001 832.882 248.246 833.394 247.701 834.42C247.156 835.431 246.884 836.99 246.884 839.096ZM249.965 845.31C250.943 845.31 251.705 844.804 252.25 843.792C252.795 842.767 253.068 841.202 253.068 839.096C253.068 837.308 252.893 835.923 252.543 834.939L247.89 844.229C248.393 844.949 249.085 845.31 249.965 845.31Z" fill="url(#paint20_linear_175_188)" fill-opacity="0.6"/>
<path d="M249.965 855.511C251.46 855.511 252.592 856.141 253.361 857.402C254.144 858.649 254.535 860.464 254.535 862.847C254.535 865.23 254.144 867.052 253.361 868.312C252.592 869.573 251.46 870.204 249.965 870.204C248.484 870.204 247.352 869.573 246.569 868.312C245.787 867.052 245.395 865.23 245.395 862.847C245.395 860.478 245.787 858.663 246.569 857.402C247.352 856.141 248.484 855.511 249.965 855.511ZM246.884 862.847C246.884 864.537 247.037 865.86 247.345 866.816L251.998 857.61C251.509 856.958 250.832 856.633 249.965 856.633C249.001 856.633 248.246 857.145 247.701 858.171C247.156 859.182 246.884 860.741 246.884 862.847ZM249.965 869.061C250.943 869.061 251.705 868.555 252.25 867.543C252.795 866.518 253.068 864.953 253.068 862.847C253.068 861.059 252.893 859.674 252.543 858.69L247.89 867.98C248.393 868.7 249.085 869.061 249.965 869.061Z" fill="url(#paint21_linear_175_188)" fill-opacity="0.6"/>
<path d="M251.223 892.645H254.304V893.747H246.318V892.645H249.881V880.966L246.485 882.982L245.898 882.046L250.091 879.469H251.223V892.645Z" fill="url(#paint22_linear_175_188)" fill-opacity="0.6"/>
<path d="M249.965 903.013C251.46 903.013 252.592 903.643 253.361 904.904C254.144 906.151 254.535 907.966 254.535 910.349C254.535 912.732 254.144 914.554 253.361 915.815C252.592 917.075 251.46 917.706 249.965 917.706C248.484 917.706 247.352 917.075 246.569 915.815C245.787 914.554 245.395 912.732 245.395 910.349C245.395 907.98 245.787 906.165 246.569 904.904C247.352 903.643 248.484 903.013 249.965 903.013ZM246.884 910.349C246.884 912.039 247.037 913.362 247.345 914.318L251.998 905.112C251.509 904.461 250.832 904.135 249.965 904.135C249.001 904.135 248.246 904.648 247.701 905.673C247.156 906.684 246.884 908.243 246.884 910.349ZM249.965 916.563C250.943 916.563 251.705 916.057 252.25 915.046C252.795 914.02 253.068 912.455 253.068 910.349C253.068 908.562 252.893 907.176 252.543 906.192L247.89 915.482C248.393 916.202 249.085 916.563 249.965 916.563Z" fill="url(#paint23_linear_175_188)" fill-opacity="0.6"/>
<path d="M251.223 940.147H254.304V941.249H246.318V940.147H249.881V928.468L246.485 930.484L245.898 929.549L250.091 926.972H251.223V940.147Z" fill="url(#paint24_linear_175_188)" fill-opacity="0.6"/>
<path d="M251.223 963.899H254.304V965H246.318V963.899H249.881V952.219L246.485 954.235L245.898 953.3L250.091 950.723H251.223V963.899Z" fill="url(#paint25_linear_175_188)" fill-opacity="0.6"/>
<path d="M191.57 689.253C193.065 689.253 194.197 689.884 194.966 691.144C195.748 692.391 196.14 694.206 196.14 696.589C196.14 698.972 195.748 700.794 194.966 702.055C194.197 703.316 193.065 703.946 191.57 703.946C190.088 703.946 188.956 703.316 188.174 702.055C187.391 700.794 187 698.972 187 696.589C187 694.22 187.391 692.405 188.174 691.144C188.956 689.884 190.088 689.253 191.57 689.253ZM188.488 696.589C188.488 698.28 188.642 699.603 188.95 700.559L193.603 691.352C193.114 690.701 192.436 690.375 191.57 690.375C190.606 690.375 189.851 690.888 189.306 691.913C188.761 692.925 188.488 694.483 188.488 696.589ZM191.57 702.803C192.548 702.803 193.31 702.297 193.855 701.286C194.4 700.261 194.672 698.695 194.672 696.589C194.672 694.802 194.498 693.417 194.148 692.433L189.495 701.722C189.998 702.443 190.689 702.803 191.57 702.803Z" fill="url(#paint26_linear_175_188)" fill-opacity="0.6"/>
<path d="M191.57 713.004C193.065 713.004 194.197 713.635 194.966 714.895C195.748 716.142 196.14 717.957 196.14 720.34C196.14 722.723 195.748 724.545 194.966 725.806C194.197 727.067 193.065 727.697 191.57 727.697C190.088 727.697 188.956 727.067 188.174 725.806C187.391 724.545 187 722.723 187 720.34C187 717.971 187.391 716.156 188.174 714.895C188.956 713.635 190.088 713.004 191.57 713.004ZM188.488 720.34C188.488 722.031 188.642 723.354 188.95 724.31L193.603 715.103C193.114 714.452 192.436 714.126 191.57 714.126C190.606 714.126 189.851 714.639 189.306 715.664C188.761 716.676 188.488 718.234 188.488 720.34ZM191.57 726.554C192.548 726.554 193.31 726.049 193.855 725.037C194.4 724.012 194.672 722.446 194.672 720.34C194.672 718.553 194.498 717.168 194.148 716.184L189.495 725.474C189.998 726.194 190.689 726.554 191.57 726.554Z" fill="url(#paint27_linear_175_188)" fill-opacity="0.6"/>
<path d="M192.828 750.139H195.909V751.24H187.922V750.139H191.486V738.459L188.09 740.475L187.503 739.54L191.696 736.963H192.828V750.139Z" fill="url(#paint28_linear_175_188)" fill-opacity="0.6"/>
<path d="M191.57 760.506C193.065 760.506 194.197 761.137 194.966 762.398C195.748 763.644 196.14 765.459 196.14 767.842C196.14 770.225 195.748 772.047 194.966 773.308C194.197 774.569 193.065 775.199 191.57 775.199C190.088 775.199 188.956 774.569 188.174 773.308C187.391 772.047 187 770.225 187 767.842C187 765.473 187.391 763.658 188.174 762.398C188.956 761.137 190.088 760.506 191.57 760.506ZM188.488 767.842C188.488 769.533 188.642 770.856 188.95 771.812L193.603 762.605C193.114 761.954 192.436 761.629 191.57 761.629C190.606 761.629 189.851 762.141 189.306 763.166C188.761 764.178 188.488 765.737 188.488 767.842ZM191.57 774.056C192.548 774.056 193.31 773.551 193.855 772.539C194.4 771.514 194.672 769.948 194.672 767.842C194.672 766.055 194.498 764.67 194.148 763.686L189.495 772.976C189.998 773.696 190.689 774.056 191.57 774.056Z" fill="url(#paint29_linear_175_188)" fill-opacity="0.6"/>
<path d="M192.828 797.641H195.909V798.743H187.922V797.641H191.486V785.962L188.09 787.977L187.503 787.042L191.696 784.465H192.828V797.641Z" fill="url(#paint30_linear_175_188)" fill-opacity="0.6"/>
<path d="M192.828 821.392H195.909V822.494H187.922V821.392H191.486V809.713L188.09 811.728L187.503 810.793L191.696 808.216H192.828V821.392Z" fill="url(#paint31_linear_175_188)" fill-opacity="0.6"/>
<path d="M231.758 655.135H234.839V656.236H226.853V655.135H230.416V643.455L227.02 645.471L226.433 644.536L230.626 641.959H231.758V655.135Z" fill="url(#paint32_linear_175_188)" fill-opacity="0.6"/>
<path d="M230.5 665.502C231.995 665.502 233.127 666.133 233.896 667.393C234.679 668.64 235.07 670.455 235.07 672.838C235.07 675.221 234.679 677.043 233.896 678.304C233.127 679.565 231.995 680.195 230.5 680.195C229.019 680.195 227.887 679.565 227.104 678.304C226.321 677.043 225.93 675.221 225.93 672.838C225.93 670.469 226.321 668.654 227.104 667.393C227.887 666.133 229.019 665.502 230.5 665.502ZM227.419 672.838C227.419 674.529 227.572 675.852 227.88 676.808L232.533 667.601C232.044 666.95 231.366 666.624 230.5 666.624C229.536 666.624 228.781 667.137 228.236 668.162C227.691 669.174 227.419 670.732 227.419 672.838ZM230.5 679.052C231.478 679.052 232.24 678.546 232.785 677.535C233.33 676.51 233.602 674.944 233.602 672.838C233.602 671.051 233.428 669.665 233.078 668.682L228.425 677.971C228.928 678.692 229.62 679.052 230.5 679.052Z" fill="url(#paint33_linear_175_188)" fill-opacity="0.6"/>
<path d="M231.758 702.637H234.839V703.738H226.853V702.637H230.416V690.957L227.02 692.973L226.433 692.038L230.626 689.461H231.758V702.637Z" fill="url(#paint34_linear_175_188)" fill-opacity="0.6"/>
<path d="M231.758 726.388H234.839V727.489H226.853V726.388H230.416V714.708L227.02 716.724L226.433 715.789L230.626 713.212H231.758V726.388Z" fill="url(#paint35_linear_175_188)" fill-opacity="0.6"/>
<path d="M230.5 736.755C231.995 736.755 233.127 737.386 233.896 738.646C234.679 739.893 235.07 741.708 235.07 744.091C235.07 746.474 234.679 748.296 233.896 749.557C233.127 750.818 231.995 751.448 230.5 751.448C229.019 751.448 227.887 750.818 227.104 749.557C226.321 748.296 225.93 746.474 225.93 744.091C225.93 741.722 226.321 739.907 227.104 738.646C227.887 737.386 229.019 736.755 230.5 736.755ZM227.419 744.091C227.419 745.782 227.572 747.105 227.88 748.061L232.533 738.854C232.044 738.203 231.366 737.878 230.5 737.878C229.536 737.878 228.781 738.39 228.236 739.415C227.691 740.427 227.419 741.985 227.419 744.091ZM230.5 750.305C231.478 750.305 232.24 749.8 232.785 748.788C233.33 747.763 233.602 746.197 233.602 744.091C233.602 742.304 233.428 740.919 233.078 739.935L228.425 749.225C228.928 749.945 229.62 750.305 230.5 750.305Z" fill="url(#paint36_linear_175_188)" fill-opacity="0.6"/>
<path d="M231.758 773.89H234.839V774.992H226.853V773.89H230.416V762.21L227.02 764.226L226.433 763.291L230.626 760.714H231.758V773.89Z" fill="url(#paint37_linear_175_188)" fill-opacity="0.6"/>
<path d="M231.758 797.641H234.839V798.743H226.853V797.641H230.416V785.962L227.02 787.977L226.433 787.042L230.626 784.465H231.758V797.641Z" fill="url(#paint38_linear_175_188)" fill-opacity="0.6"/>
<path d="M230.5 808.008C231.995 808.008 233.127 808.639 233.896 809.9C234.679 811.147 235.07 812.962 235.07 815.345C235.07 817.728 234.679 819.549 233.896 820.81C233.127 822.071 231.995 822.701 230.5 822.701C229.019 822.701 227.887 822.071 227.104 820.81C226.321 819.549 225.93 817.728 225.93 815.345C225.93 812.975 226.321 811.16 227.104 809.9C227.887 808.639 229.019 808.008 230.5 808.008ZM227.419 815.345C227.419 817.035 227.572 818.358 227.88 819.314L232.533 810.107C232.044 809.456 231.366 809.131 230.5 809.131C229.536 809.131 228.781 809.643 228.236 810.669C227.691 811.68 227.419 813.239 227.419 815.345ZM230.5 821.558C231.478 821.558 232.24 821.053 232.785 820.041C233.33 819.016 233.602 817.451 233.602 815.345C233.602 813.557 233.428 812.172 233.078 811.188L228.425 820.478C228.928 821.198 229.62 821.558 230.5 821.558Z" fill="url(#paint39_linear_175_188)" fill-opacity="0.6"/>
<path d="M231.758 845.143H234.839V846.245H226.853V845.143H230.416V833.464L227.02 835.48L226.433 834.544L230.626 831.967H231.758V845.143Z" fill="url(#paint40_linear_175_188)" fill-opacity="0.6"/>
<path d="M230.5 855.511C231.995 855.511 233.127 856.141 233.896 857.402C234.679 858.649 235.07 860.464 235.07 862.847C235.07 865.23 234.679 867.052 233.896 868.312C233.127 869.573 231.995 870.204 230.5 870.204C229.019 870.204 227.887 869.573 227.104 868.312C226.321 867.052 225.93 865.23 225.93 862.847C225.93 860.478 226.321 858.663 227.104 857.402C227.887 856.141 229.019 855.511 230.5 855.511ZM227.419 862.847C227.419 864.537 227.572 865.86 227.88 866.816L232.533 857.61C232.044 856.958 231.366 856.633 230.5 856.633C229.536 856.633 228.781 857.145 228.236 858.171C227.691 859.182 227.419 860.741 227.419 862.847ZM230.5 869.061C231.478 869.061 232.24 868.555 232.785 867.543C233.33 866.518 233.602 864.953 233.602 862.847C233.602 861.059 233.428 859.674 233.078 858.69L228.425 867.98C228.928 868.7 229.62 869.061 230.5 869.061Z" fill="url(#paint41_linear_175_188)" fill-opacity="0.6"/>
<path d="M269.43 641.751C270.926 641.751 272.057 642.381 272.826 643.642C273.609 644.889 274 646.704 274 649.087C274 651.47 273.609 653.292 272.826 654.553C272.057 655.814 270.926 656.444 269.43 656.444C267.949 656.444 266.817 655.814 266.034 654.553C265.252 653.292 264.86 651.47 264.86 649.087C264.86 646.718 265.252 644.903 266.034 643.642C266.817 642.381 267.949 641.751 269.43 641.751ZM266.349 649.087C266.349 650.777 266.502 652.101 266.81 653.057L271.464 643.85C270.974 643.199 270.297 642.873 269.43 642.873C268.466 642.873 267.711 643.386 267.166 644.411C266.621 645.423 266.349 646.981 266.349 649.087ZM269.43 655.301C270.408 655.301 271.17 654.795 271.715 653.784C272.26 652.759 272.533 651.193 272.533 649.087C272.533 647.3 272.358 645.914 272.009 644.931L267.355 654.22C267.858 654.941 268.55 655.301 269.43 655.301Z" fill="url(#paint42_linear_175_188)" fill-opacity="0.6"/>
<path d="M270.688 678.886H273.769V679.987H265.783V678.886H269.346V667.206L265.95 669.222L265.363 668.287L269.556 665.71H270.688V678.886Z" fill="url(#paint43_linear_175_188)" fill-opacity="0.6"/>
<path d="M270.688 702.637H273.769V703.738H265.783V702.637H269.346V690.957L265.95 692.973L265.363 692.038L269.556 689.461H270.688V702.637Z" fill="url(#paint44_linear_175_188)" fill-opacity="0.6"/>
<path d="M269.43 713.004C270.926 713.004 272.057 713.635 272.826 714.895C273.609 716.142 274 717.957 274 720.34C274 722.723 273.609 724.545 272.826 725.806C272.057 727.067 270.926 727.697 269.43 727.697C267.949 727.697 266.817 727.067 266.034 725.806C265.252 724.545 264.86 722.723 264.86 720.34C264.86 717.971 265.252 716.156 266.034 714.895C266.817 713.635 267.949 713.004 269.43 713.004ZM266.349 720.34C266.349 722.031 266.502 723.354 266.81 724.31L271.464 715.103C270.974 714.452 270.297 714.126 269.43 714.126C268.466 714.126 267.711 714.639 267.166 715.664C266.621 716.676 266.349 718.234 266.349 720.34ZM269.43 726.554C270.408 726.554 271.17 726.049 271.715 725.037C272.26 724.012 272.533 722.446 272.533 720.34C272.533 718.553 272.358 717.168 272.009 716.184L267.355 725.474C267.858 726.194 268.55 726.554 269.43 726.554Z" fill="url(#paint45_linear_175_188)" fill-opacity="0.6"/>
<path d="M269.43 736.755C270.926 736.755 272.057 737.386 272.826 738.646C273.609 739.893 274 741.708 274 744.091C274 746.474 273.609 748.296 272.826 749.557C272.057 750.818 270.926 751.448 269.43 751.448C267.949 751.448 266.817 750.818 266.034 749.557C265.252 748.296 264.86 746.474 264.86 744.091C264.86 741.722 265.252 739.907 266.034 738.646C266.817 737.386 267.949 736.755 269.43 736.755ZM266.349 744.091C266.349 745.782 266.502 747.105 266.81 748.061L271.464 738.854C270.974 738.203 270.297 737.878 269.43 737.878C268.466 737.878 267.711 738.39 267.166 739.415C266.621 740.427 266.349 741.985 266.349 744.091ZM269.43 750.305C270.408 750.305 271.17 749.8 271.715 748.788C272.26 747.763 272.533 746.197 272.533 744.091C272.533 742.304 272.358 740.919 272.009 739.935L267.355 749.225C267.858 749.945 268.55 750.305 269.43 750.305Z" fill="url(#paint46_linear_175_188)" fill-opacity="0.6"/>
<g opacity="0.6">
<path d="M1097.93 318C1099.36 318 1100.44 318.605 1101.17 319.815C1101.92 321.011 1102.29 322.753 1102.29 325.04C1102.29 327.327 1101.92 329.075 1101.17 330.285C1100.44 331.495 1099.36 332.1 1097.93 332.1C1096.52 332.1 1095.44 331.495 1094.69 330.285C1093.94 329.075 1093.57 327.327 1093.57 325.04C1093.57 322.767 1093.94 321.025 1094.69 319.815C1095.44 318.605 1096.52 318 1097.93 318ZM1094.99 325.04C1094.99 326.662 1095.14 327.932 1095.43 328.849L1099.87 320.014C1099.4 319.389 1098.76 319.077 1097.93 319.077C1097.01 319.077 1096.29 319.569 1095.77 320.553C1095.25 321.523 1094.99 323.019 1094.99 325.04ZM1097.93 331.003C1098.86 331.003 1099.59 330.518 1100.11 329.547C1100.63 328.564 1100.89 327.061 1100.89 325.04C1100.89 323.325 1100.72 321.995 1100.39 321.051L1095.95 329.966C1096.43 330.658 1097.09 331.003 1097.93 331.003Z" fill="url(#paint47_linear_175_188)"/>
<path d="M1099.13 353.637H1102.07V354.694H1094.45V353.637H1097.85V342.428L1094.61 344.363L1094.05 343.465L1098.05 340.992H1099.13V353.637Z" fill="url(#paint48_linear_175_188)"/>
<path d="M1097.93 363.586C1099.36 363.586 1100.44 364.191 1101.17 365.4C1101.92 366.597 1102.29 368.339 1102.29 370.626C1102.29 372.913 1101.92 374.661 1101.17 375.871C1100.44 377.081 1099.36 377.686 1097.93 377.686C1096.52 377.686 1095.44 377.081 1094.69 375.871C1093.94 374.661 1093.57 372.913 1093.57 370.626C1093.57 368.352 1093.94 366.61 1094.69 365.4C1095.44 364.191 1096.52 363.586 1097.93 363.586ZM1094.99 370.626C1094.99 372.248 1095.14 373.518 1095.43 374.435L1099.87 365.6C1099.4 364.975 1098.76 364.663 1097.93 364.663C1097.01 364.663 1096.29 365.155 1095.77 366.138C1095.25 367.109 1094.99 368.605 1094.99 370.626ZM1097.93 376.589C1098.86 376.589 1099.59 376.104 1100.11 375.133C1100.63 374.149 1100.89 372.647 1100.89 370.626C1100.89 368.911 1100.72 367.581 1100.39 366.637L1095.95 375.552C1096.43 376.243 1097.09 376.589 1097.93 376.589Z" fill="url(#paint49_linear_175_188)"/>
<path d="M1099.13 399.222H1102.07V400.279H1094.45V399.222H1097.85V388.014L1094.61 389.948L1094.05 389.051L1098.05 386.578H1099.13V399.222Z" fill="url(#paint50_linear_175_188)"/>
<path d="M1099.13 422.015H1102.07V423.072H1094.45V422.015H1097.85V410.807L1094.61 412.741L1094.05 411.844L1098.05 409.371H1099.13V422.015Z" fill="url(#paint51_linear_175_188)"/>
<path d="M1097.93 431.964C1099.36 431.964 1100.44 432.569 1101.17 433.779C1101.92 434.976 1102.29 436.717 1102.29 439.004C1102.29 441.291 1101.92 443.039 1101.17 444.249C1100.44 445.459 1099.36 446.064 1097.93 446.064C1096.52 446.064 1095.44 445.459 1094.69 444.249C1093.94 443.039 1093.57 441.291 1093.57 439.004C1093.57 436.731 1093.94 434.989 1094.69 433.779C1095.44 432.569 1096.52 431.964 1097.93 431.964ZM1094.99 439.004C1094.99 440.626 1095.14 441.896 1095.43 442.813L1099.87 433.978C1099.4 433.353 1098.76 433.041 1097.93 433.041C1097.01 433.041 1096.29 433.533 1095.77 434.517C1095.25 435.487 1094.99 436.983 1094.99 439.004ZM1097.93 444.967C1098.86 444.967 1099.59 444.482 1100.11 443.511C1100.63 442.528 1100.89 441.025 1100.89 439.004C1100.89 437.289 1100.72 435.959 1100.39 435.015L1095.95 443.93C1096.43 444.622 1097.09 444.967 1097.93 444.967Z" fill="url(#paint52_linear_175_188)"/>
<path d="M1099.13 467.601H1102.07V468.658H1094.45V467.601H1097.85V456.392L1094.61 458.327L1094.05 457.429L1098.05 454.956H1099.13V467.601Z" fill="url(#paint53_linear_175_188)"/>
<path d="M1097.93 477.55C1099.36 477.55 1100.44 478.155 1101.17 479.365C1101.92 480.561 1102.29 482.303 1102.29 484.59C1102.29 486.877 1101.92 488.625 1101.17 489.835C1100.44 491.045 1099.36 491.65 1097.93 491.65C1096.52 491.65 1095.44 491.045 1094.69 489.835C1093.94 488.625 1093.57 486.877 1093.57 484.59C1093.57 482.316 1093.94 480.574 1094.69 479.365C1095.44 478.155 1096.52 477.55 1097.93 477.55ZM1094.99 484.59C1094.99 486.212 1095.14 487.482 1095.43 488.399L1099.87 479.564C1099.4 478.939 1098.76 478.627 1097.93 478.627C1097.01 478.627 1096.29 479.119 1095.77 480.102C1095.25 481.073 1094.99 482.569 1094.99 484.59ZM1097.93 490.553C1098.86 490.553 1099.59 490.068 1100.11 489.097C1100.63 488.113 1100.89 486.611 1100.89 484.59C1100.89 482.875 1100.72 481.545 1100.39 480.601L1095.95 489.516C1096.43 490.207 1097.09 490.553 1097.93 490.553Z" fill="url(#paint54_linear_175_188)"/>
<path d="M1097.93 500.342C1099.36 500.342 1100.44 500.947 1101.17 502.157C1101.92 503.354 1102.29 505.096 1102.29 507.383C1102.29 509.669 1101.92 511.418 1101.17 512.628C1100.44 513.838 1099.36 514.443 1097.93 514.443C1096.52 514.443 1095.44 513.838 1094.69 512.628C1093.94 511.418 1093.57 509.669 1093.57 507.383C1093.57 505.109 1093.94 503.367 1094.69 502.157C1095.44 500.947 1096.52 500.342 1097.93 500.342ZM1094.99 507.383C1094.99 509.005 1095.14 510.274 1095.43 511.192L1099.87 502.357C1099.4 501.732 1098.76 501.419 1097.93 501.419C1097.01 501.419 1096.29 501.911 1095.77 502.895C1095.25 503.866 1094.99 505.362 1094.99 507.383ZM1097.93 513.346C1098.86 513.346 1099.59 512.86 1100.11 511.89C1100.63 510.906 1100.89 509.404 1100.89 507.383C1100.89 505.667 1100.72 504.338 1100.39 503.394L1095.95 512.309C1096.43 513 1097.09 513.346 1097.93 513.346Z" fill="url(#paint55_linear_175_188)"/>
<path d="M1099.13 535.979H1102.07V537.036H1094.45V535.979H1097.85V524.771L1094.61 526.705L1094.05 525.808L1098.05 523.335H1099.13V535.979Z" fill="url(#paint56_linear_175_188)"/>
<path d="M1097.93 545.928C1099.36 545.928 1100.44 546.533 1101.17 547.743C1101.92 548.94 1102.29 550.681 1102.29 552.968C1102.29 555.255 1101.92 557.003 1101.17 558.213C1100.44 559.423 1099.36 560.028 1097.93 560.028C1096.52 560.028 1095.44 559.423 1094.69 558.213C1093.94 557.003 1093.57 555.255 1093.57 552.968C1093.57 550.695 1093.94 548.953 1094.69 547.743C1095.44 546.533 1096.52 545.928 1097.93 545.928ZM1094.99 552.968C1094.99 554.59 1095.14 555.86 1095.43 556.777L1099.87 547.942C1099.4 547.317 1098.76 547.005 1097.93 547.005C1097.01 547.005 1096.29 547.497 1095.77 548.481C1095.25 549.451 1094.99 550.947 1094.99 552.968ZM1097.93 558.931C1098.86 558.931 1099.59 558.446 1100.11 557.475C1100.63 556.492 1100.89 554.989 1100.89 552.968C1100.89 551.253 1100.72 549.923 1100.39 548.979L1095.95 557.894C1096.43 558.586 1097.09 558.931 1097.93 558.931Z" fill="url(#paint57_linear_175_188)"/>
<path d="M1099.13 581.565H1102.07V582.622H1094.45V581.565H1097.85V570.356L1094.61 572.291L1094.05 571.393L1098.05 568.92H1099.13V581.565Z" fill="url(#paint58_linear_175_188)"/>
<path d="M1099.13 604.357H1102.07V605.414H1094.45V604.357H1097.85V593.149L1094.61 595.084L1094.05 594.186L1098.05 591.713H1099.13V604.357Z" fill="url(#paint59_linear_175_188)"/>
<path d="M1135.07 363.586C1136.5 363.586 1137.58 364.191 1138.31 365.4C1139.06 366.597 1139.43 368.339 1139.43 370.626C1139.43 372.913 1139.06 374.661 1138.31 375.871C1137.58 377.081 1136.5 377.686 1135.07 377.686C1133.66 377.686 1132.58 377.081 1131.83 375.871C1131.08 374.661 1130.71 372.913 1130.71 370.626C1130.71 368.352 1131.08 366.61 1131.83 365.4C1132.58 364.191 1133.66 363.586 1135.07 363.586ZM1132.13 370.626C1132.13 372.248 1132.28 373.518 1132.57 374.435L1137.01 365.6C1136.54 364.975 1135.9 364.663 1135.07 364.663C1134.15 364.663 1133.43 365.155 1132.91 366.138C1132.39 367.109 1132.13 368.605 1132.13 370.626ZM1135.07 376.589C1136 376.589 1136.73 376.104 1137.25 375.133C1137.77 374.149 1138.03 372.647 1138.03 370.626C1138.03 368.911 1137.86 367.581 1137.53 366.637L1133.09 375.552C1133.57 376.243 1134.23 376.589 1135.07 376.589Z" fill="url(#paint60_linear_175_188)"/>
<path d="M1136.27 399.222H1139.21V400.279H1131.59V399.222H1134.99V388.014L1131.75 389.948L1131.19 389.051L1135.19 386.578H1136.27V399.222Z" fill="url(#paint61_linear_175_188)"/>
<path d="M1135.07 409.171C1136.5 409.171 1137.58 409.776 1138.31 410.986C1139.06 412.183 1139.43 413.924 1139.43 416.211C1139.43 418.498 1139.06 420.247 1138.31 421.457C1137.58 422.666 1136.5 423.271 1135.07 423.271C1133.66 423.271 1132.58 422.666 1131.83 421.457C1131.08 420.247 1130.71 418.498 1130.71 416.211C1130.71 413.938 1131.08 412.196 1131.83 410.986C1132.58 409.776 1133.66 409.171 1135.07 409.171ZM1132.13 416.211C1132.13 417.833 1132.28 419.103 1132.57 420.021L1137.01 411.186C1136.54 410.561 1135.9 410.248 1135.07 410.248C1134.15 410.248 1133.43 410.74 1132.91 411.724C1132.39 412.695 1132.13 414.19 1132.13 416.211ZM1135.07 422.174C1136 422.174 1136.73 421.689 1137.25 420.719C1137.77 419.735 1138.03 418.232 1138.03 416.211C1138.03 414.496 1137.86 413.167 1137.53 412.223L1133.09 421.137C1133.57 421.829 1134.23 422.174 1135.07 422.174Z" fill="url(#paint62_linear_175_188)"/>
<path d="M1135.07 431.964C1136.5 431.964 1137.58 432.569 1138.31 433.779C1139.06 434.976 1139.43 436.717 1139.43 439.004C1139.43 441.291 1139.06 443.039 1138.31 444.249C1137.58 445.459 1136.5 446.064 1135.07 446.064C1133.66 446.064 1132.58 445.459 1131.83 444.249C1131.08 443.039 1130.71 441.291 1130.71 439.004C1130.71 436.731 1131.08 434.989 1131.83 433.779C1132.58 432.569 1133.66 431.964 1135.07 431.964ZM1132.13 439.004C1132.13 440.626 1132.28 441.896 1132.57 442.813L1137.01 433.978C1136.54 433.353 1135.9 433.041 1135.07 433.041C1134.15 433.041 1133.43 433.533 1132.91 434.517C1132.39 435.487 1132.13 436.983 1132.13 439.004ZM1135.07 444.967C1136 444.967 1136.73 444.482 1137.25 443.511C1137.77 442.528 1138.03 441.025 1138.03 439.004C1138.03 437.289 1137.86 435.959 1137.53 435.015L1133.09 443.93C1133.57 444.622 1134.23 444.967 1135.07 444.967Z" fill="url(#paint63_linear_175_188)"/>
<path d="M1136.27 467.601H1139.21V468.658H1131.59V467.601H1134.99V456.392L1131.75 458.327L1131.19 457.429L1135.19 454.956H1136.27V467.601Z" fill="url(#paint64_linear_175_188)"/>
<path d="M1135.07 477.55C1136.5 477.55 1137.58 478.155 1138.31 479.365C1139.06 480.561 1139.43 482.303 1139.43 484.59C1139.43 486.877 1139.06 488.625 1138.31 489.835C1137.58 491.045 1136.5 491.65 1135.07 491.65C1133.66 491.65 1132.58 491.045 1131.83 489.835C1131.08 488.625 1130.71 486.877 1130.71 484.59C1130.71 482.316 1131.08 480.574 1131.83 479.365C1132.58 478.155 1133.66 477.55 1135.07 477.55ZM1132.13 484.59C1132.13 486.212 1132.28 487.482 1132.57 488.399L1137.01 479.564C1136.54 478.939 1135.9 478.627 1135.07 478.627C1134.15 478.627 1133.43 479.119 1132.91 480.102C1132.39 481.073 1132.13 482.569 1132.13 484.59ZM1135.07 490.553C1136 490.553 1136.73 490.068 1137.25 489.097C1137.77 488.113 1138.03 486.611 1138.03 484.59C1138.03 482.875 1137.86 481.545 1137.53 480.601L1133.09 489.516C1133.57 490.207 1134.23 490.553 1135.07 490.553Z" fill="url(#paint65_linear_175_188)"/>
<path d="M1136.27 513.186H1139.21V514.243H1131.59V513.186H1134.99V501.978L1131.75 503.912L1131.19 503.015L1135.19 500.542H1136.27V513.186Z" fill="url(#paint66_linear_175_188)"/>
<path d="M1135.07 523.135C1136.5 523.135 1137.58 523.74 1138.31 524.95C1139.06 526.147 1139.43 527.888 1139.43 530.175C1139.43 532.462 1139.06 534.211 1138.31 535.421C1137.58 536.63 1136.5 537.235 1135.07 537.235C1133.66 537.235 1132.58 536.63 1131.83 535.421C1131.08 534.211 1130.71 532.462 1130.71 530.175C1130.71 527.902 1131.08 526.16 1131.83 524.95C1132.58 523.74 1133.66 523.135 1135.07 523.135ZM1132.13 530.175C1132.13 531.797 1132.28 533.067 1132.57 533.985L1137.01 525.15C1136.54 524.525 1135.9 524.212 1135.07 524.212C1134.15 524.212 1133.43 524.704 1132.91 525.688C1132.39 526.659 1132.13 528.154 1132.13 530.175ZM1135.07 536.139C1136 536.139 1136.73 535.653 1137.25 534.683C1137.77 533.699 1138.03 532.196 1138.03 530.175C1138.03 528.46 1137.86 527.131 1137.53 526.187L1133.09 535.101C1133.57 535.793 1134.23 536.139 1135.07 536.139Z" fill="url(#paint67_linear_175_188)"/>
<path d="M1135.07 545.928C1136.5 545.928 1137.58 546.533 1138.31 547.743C1139.06 548.94 1139.43 550.681 1139.43 552.968C1139.43 555.255 1139.06 557.003 1138.31 558.213C1137.58 559.423 1136.5 560.028 1135.07 560.028C1133.66 560.028 1132.58 559.423 1131.83 558.213C1131.08 557.003 1130.71 555.255 1130.71 552.968C1130.71 550.695 1131.08 548.953 1131.83 547.743C1132.58 546.533 1133.66 545.928 1135.07 545.928ZM1132.13 552.968C1132.13 554.59 1132.28 555.86 1132.57 556.777L1137.01 547.942C1136.54 547.317 1135.9 547.005 1135.07 547.005C1134.15 547.005 1133.43 547.497 1132.91 548.481C1132.39 549.451 1132.13 550.947 1132.13 552.968ZM1135.07 558.931C1136 558.931 1136.73 558.446 1137.25 557.475C1137.77 556.492 1138.03 554.989 1138.03 552.968C1138.03 551.253 1137.86 549.923 1137.53 548.979L1133.09 557.894C1133.57 558.586 1134.23 558.931 1135.07 558.931Z" fill="url(#paint68_linear_175_188)"/>
<path d="M1136.27 581.565H1139.21V582.622H1131.59V581.565H1134.99V570.356L1131.75 572.291L1131.19 571.393L1135.19 568.92H1136.27V581.565Z" fill="url(#paint69_linear_175_188)"/>
<path d="M1135.07 591.514C1136.5 591.514 1137.58 592.119 1138.31 593.329C1139.06 594.525 1139.43 596.267 1139.43 598.554C1139.43 600.841 1139.06 602.589 1138.31 603.799C1137.58 605.009 1136.5 605.614 1135.07 605.614C1133.66 605.614 1132.58 605.009 1131.83 603.799C1131.08 602.589 1130.71 600.841 1130.71 598.554C1130.71 596.28 1131.08 594.538 1131.83 593.329C1132.58 592.119 1133.66 591.514 1135.07 591.514ZM1132.13 598.554C1132.13 600.176 1132.28 601.446 1132.57 602.363L1137.01 593.528C1136.54 592.903 1135.9 592.591 1135.07 592.591C1134.15 592.591 1133.43 593.083 1132.91 594.066C1132.39 595.037 1132.13 596.533 1132.13 598.554ZM1135.07 604.517C1136 604.517 1136.73 604.032 1137.25 603.061C1137.77 602.077 1138.03 600.575 1138.03 598.554C1138.03 596.839 1137.86 595.509 1137.53 594.565L1133.09 603.48C1133.57 604.171 1134.23 604.517 1135.07 604.517Z" fill="url(#paint70_linear_175_188)"/>
<path d="M1136.27 627.15H1139.21V628.207H1131.59V627.15H1134.99V615.942L1131.75 617.876L1131.19 616.979L1135.19 614.506H1136.27V627.15Z" fill="url(#paint71_linear_175_188)"/>
<path d="M1136.27 649.943H1139.21V651H1131.59V649.943H1134.99V638.735L1131.75 640.669L1131.19 639.772L1135.19 637.299H1136.27V649.943Z" fill="url(#paint72_linear_175_188)"/>
<path d="M1079.36 386.378C1080.79 386.378 1081.87 386.983 1082.6 388.193C1083.35 389.39 1083.72 391.132 1083.72 393.419C1083.72 395.705 1083.35 397.454 1082.6 398.664C1081.87 399.874 1080.79 400.479 1079.36 400.479C1077.95 400.479 1076.87 399.874 1076.12 398.664C1075.37 397.454 1075 395.705 1075 393.419C1075 391.145 1075.37 389.403 1076.12 388.193C1076.87 386.983 1077.95 386.378 1079.36 386.378ZM1076.42 393.419C1076.42 395.041 1076.57 396.31 1076.86 397.228L1081.3 388.393C1080.83 387.768 1080.19 387.455 1079.36 387.455C1078.44 387.455 1077.72 387.947 1077.2 388.931C1076.68 389.902 1076.42 391.398 1076.42 393.419ZM1079.36 399.382C1080.29 399.382 1081.02 398.896 1081.54 397.926C1082.06 396.942 1082.32 395.439 1082.32 393.419C1082.32 391.703 1082.15 390.374 1081.82 389.43L1077.38 398.345C1077.86 399.036 1078.52 399.382 1079.36 399.382Z" fill="url(#paint73_linear_175_188)"/>
<path d="M1079.36 409.171C1080.79 409.171 1081.87 409.776 1082.6 410.986C1083.35 412.183 1083.72 413.924 1083.72 416.211C1083.72 418.498 1083.35 420.247 1082.6 421.457C1081.87 422.666 1080.79 423.271 1079.36 423.271C1077.95 423.271 1076.87 422.666 1076.12 421.457C1075.37 420.247 1075 418.498 1075 416.211C1075 413.938 1075.37 412.196 1076.12 410.986C1076.87 409.776 1077.95 409.171 1079.36 409.171ZM1076.42 416.211C1076.42 417.833 1076.57 419.103 1076.86 420.021L1081.3 411.186C1080.83 410.561 1080.19 410.248 1079.36 410.248C1078.44 410.248 1077.72 410.74 1077.2 411.724C1076.68 412.695 1076.42 414.19 1076.42 416.211ZM1079.36 422.174C1080.29 422.174 1081.02 421.689 1081.54 420.719C1082.06 419.735 1082.32 418.232 1082.32 416.211C1082.32 414.496 1082.15 413.167 1081.82 412.223L1077.38 421.137C1077.86 421.829 1078.52 422.174 1079.36 422.174Z" fill="url(#paint74_linear_175_188)"/>
<path d="M1080.56 444.808H1083.5V445.865H1075.88V444.808H1079.28V433.599L1076.04 435.534L1075.48 434.636L1079.48 432.163H1080.56V444.808Z" fill="url(#paint75_linear_175_188)"/>
<path d="M1079.36 454.757C1080.79 454.757 1081.87 455.362 1082.6 456.572C1083.35 457.768 1083.72 459.51 1083.72 461.797C1083.72 464.084 1083.35 465.832 1082.6 467.042C1081.87 468.252 1080.79 468.857 1079.36 468.857C1077.95 468.857 1076.87 468.252 1076.12 467.042C1075.37 465.832 1075 464.084 1075 461.797C1075 459.523 1075.37 457.782 1076.12 456.572C1076.87 455.362 1077.95 454.757 1079.36 454.757ZM1076.42 461.797C1076.42 463.419 1076.57 464.689 1076.86 465.606L1081.3 456.771C1080.83 456.146 1080.19 455.834 1079.36 455.834C1078.44 455.834 1077.72 456.326 1077.2 457.31C1076.68 458.28 1076.42 459.776 1076.42 461.797ZM1079.36 467.76C1080.29 467.76 1081.02 467.275 1081.54 466.304C1082.06 465.32 1082.32 463.818 1082.32 461.797C1082.32 460.082 1082.15 458.752 1081.82 457.808L1077.38 466.723C1077.86 467.414 1078.52 467.76 1079.36 467.76Z" fill="url(#paint76_linear_175_188)"/>
<path d="M1080.56 490.393H1083.5V491.45H1075.88V490.393H1079.28V479.185L1076.04 481.12L1075.48 480.222L1079.48 477.749H1080.56V490.393Z" fill="url(#paint77_linear_175_188)"/>
<path d="M1080.56 513.186H1083.5V514.243H1075.88V513.186H1079.28V501.978L1076.04 503.912L1075.48 503.015L1079.48 500.542H1080.56V513.186Z" fill="url(#paint78_linear_175_188)"/>
<path d="M1117.7 353.637H1120.64V354.694H1113.02V353.637H1116.42V342.428L1113.18 344.363L1112.62 343.465L1116.62 340.992H1117.7V353.637Z" fill="url(#paint79_linear_175_188)"/>
<path d="M1116.5 363.586C1117.93 363.586 1119.01 364.191 1119.74 365.4C1120.49 366.597 1120.86 368.339 1120.86 370.626C1120.86 372.913 1120.49 374.661 1119.74 375.871C1119.01 377.081 1117.93 377.686 1116.5 377.686C1115.09 377.686 1114.01 377.081 1113.26 375.871C1112.51 374.661 1112.14 372.913 1112.14 370.626C1112.14 368.352 1112.51 366.61 1113.26 365.4C1114.01 364.191 1115.09 363.586 1116.5 363.586ZM1113.56 370.626C1113.56 372.248 1113.71 373.518 1114 374.435L1118.44 365.6C1117.97 364.975 1117.33 364.663 1116.5 364.663C1115.58 364.663 1114.86 365.155 1114.34 366.138C1113.82 367.109 1113.56 368.605 1113.56 370.626ZM1116.5 376.589C1117.43 376.589 1118.16 376.104 1118.68 375.133C1119.2 374.149 1119.46 372.647 1119.46 370.626C1119.46 368.911 1119.29 367.581 1118.96 366.637L1114.52 375.552C1115 376.243 1115.66 376.589 1116.5 376.589Z" fill="url(#paint80_linear_175_188)"/>
<path d="M1117.7 399.222H1120.64V400.279H1113.02V399.222H1116.42V388.014L1113.18 389.948L1112.62 389.051L1116.62 386.578H1117.7V399.222Z" fill="url(#paint81_linear_175_188)"/>
<path d="M1117.7 422.015H1120.64V423.072H1113.02V422.015H1116.42V410.807L1113.18 412.741L1112.62 411.844L1116.62 409.371H1117.7V422.015Z" fill="url(#paint82_linear_175_188)"/>
<path d="M1116.5 431.964C1117.93 431.964 1119.01 432.569 1119.74 433.779C1120.49 434.976 1120.86 436.717 1120.86 439.004C1120.86 441.291 1120.49 443.039 1119.74 444.249C1119.01 445.459 1117.93 446.064 1116.5 446.064C1115.09 446.064 1114.01 445.459 1113.26 444.249C1112.51 443.039 1112.14 441.291 1112.14 439.004C1112.14 436.731 1112.51 434.989 1113.26 433.779C1114.01 432.569 1115.09 431.964 1116.5 431.964ZM1113.56 439.004C1113.56 440.626 1113.71 441.896 1114 442.813L1118.44 433.978C1117.97 433.353 1117.33 433.041 1116.5 433.041C1115.58 433.041 1114.86 433.533 1114.34 434.517C1113.82 435.487 1113.56 436.983 1113.56 439.004ZM1116.5 444.967C1117.43 444.967 1118.16 444.482 1118.68 443.511C1119.2 442.528 1119.46 441.025 1119.46 439.004C1119.46 437.289 1119.29 435.959 1118.96 435.015L1114.52 443.93C1115 444.622 1115.66 444.967 1116.5 444.967Z" fill="url(#paint83_linear_175_188)"/>
<path d="M1117.7 467.601H1120.64V468.658H1113.02V467.601H1116.42V456.392L1113.18 458.327L1112.62 457.429L1116.62 454.956H1117.7V467.601Z" fill="url(#paint84_linear_175_188)"/>
<path d="M1117.7 490.393H1120.64V491.45H1113.02V490.393H1116.42V479.185L1113.18 481.12L1112.62 480.222L1116.62 477.749H1117.7V490.393Z" fill="url(#paint85_linear_175_188)"/>
<path d="M1116.5 500.342C1117.93 500.342 1119.01 500.947 1119.74 502.157C1120.49 503.354 1120.86 505.096 1120.86 507.383C1120.86 509.669 1120.49 511.418 1119.74 512.628C1119.01 513.838 1117.93 514.443 1116.5 514.443C1115.09 514.443 1114.01 513.838 1113.26 512.628C1112.51 511.418 1112.14 509.669 1112.14 507.383C1112.14 505.109 1112.51 503.367 1113.26 502.157C1114.01 500.947 1115.09 500.342 1116.5 500.342ZM1113.56 507.383C1113.56 509.005 1113.71 510.274 1114 511.192L1118.44 502.357C1117.97 501.732 1117.33 501.419 1116.5 501.419C1115.58 501.419 1114.86 501.911 1114.34 502.895C1113.82 503.866 1113.56 505.362 1113.56 507.383ZM1116.5 513.346C1117.43 513.346 1118.16 512.86 1118.68 511.89C1119.2 510.906 1119.46 509.404 1119.46 507.383C1119.46 505.667 1119.29 504.338 1118.96 503.394L1114.52 512.309C1115 513 1115.66 513.346 1116.5 513.346Z" fill="url(#paint86_linear_175_188)"/>
<path d="M1117.7 535.979H1120.64V537.036H1113.02V535.979H1116.42V524.771L1113.18 526.705L1112.62 525.808L1116.62 523.335H1117.7V535.979Z" fill="url(#paint87_linear_175_188)"/>
<path d="M1116.5 545.928C1117.93 545.928 1119.01 546.533 1119.74 547.743C1120.49 548.94 1120.86 550.681 1120.86 552.968C1120.86 555.255 1120.49 557.003 1119.74 558.213C1119.01 559.423 1117.93 560.028 1116.5 560.028C1115.09 560.028 1114.01 559.423 1113.26 558.213C1112.51 557.003 1112.14 555.255 1112.14 552.968C1112.14 550.695 1112.51 548.953 1113.26 547.743C1114.01 546.533 1115.09 545.928 1116.5 545.928ZM1113.56 552.968C1113.56 554.59 1113.71 555.86 1114 556.777L1118.44 547.942C1117.97 547.317 1117.33 547.005 1116.5 547.005C1115.58 547.005 1114.86 547.497 1114.34 548.481C1113.82 549.451 1113.56 550.947 1113.56 552.968ZM1116.5 558.931C1117.43 558.931 1118.16 558.446 1118.68 557.475C1119.2 556.492 1119.46 554.989 1119.46 552.968C1119.46 551.253 1119.29 549.923 1118.96 548.979L1114.52 557.894C1115 558.586 1115.66 558.931 1116.5 558.931Z" fill="url(#paint88_linear_175_188)"/>
<path d="M1153.64 340.793C1155.07 340.793 1156.15 341.398 1156.88 342.608C1157.63 343.804 1158 345.546 1158 347.833C1158 350.12 1157.63 351.868 1156.88 353.078C1156.15 354.288 1155.07 354.893 1153.64 354.893C1152.23 354.893 1151.15 354.288 1150.4 353.078C1149.65 351.868 1149.28 350.12 1149.28 347.833C1149.28 345.559 1149.65 343.818 1150.4 342.608C1151.15 341.398 1152.23 340.793 1153.64 340.793ZM1150.7 347.833C1150.7 349.455 1150.85 350.725 1151.14 351.642L1155.58 342.807C1155.11 342.182 1154.47 341.87 1153.64 341.87C1152.72 341.87 1152 342.362 1151.48 343.346C1150.96 344.316 1150.7 345.812 1150.7 347.833ZM1153.64 353.796C1154.57 353.796 1155.3 353.311 1155.82 352.34C1156.34 351.356 1156.6 349.854 1156.6 347.833C1156.6 346.118 1156.43 344.788 1156.1 343.844L1151.66 352.759C1152.14 353.45 1152.8 353.796 1153.64 353.796Z" fill="url(#paint89_linear_175_188)"/>
<path d="M1154.84 376.429H1157.78V377.486H1150.16V376.429H1153.56V365.221L1150.32 367.156L1149.76 366.258L1153.76 363.785H1154.84V376.429Z" fill="url(#paint90_linear_175_188)"/>
<path d="M1154.84 399.222H1157.78V400.279H1150.16V399.222H1153.56V388.014L1150.32 389.948L1149.76 389.051L1153.76 386.578H1154.84V399.222Z" fill="url(#paint91_linear_175_188)"/>
<path d="M1153.64 409.171C1155.07 409.171 1156.15 409.776 1156.88 410.986C1157.63 412.183 1158 413.924 1158 416.211C1158 418.498 1157.63 420.247 1156.88 421.457C1156.15 422.666 1155.07 423.271 1153.64 423.271C1152.23 423.271 1151.15 422.666 1150.4 421.457C1149.65 420.247 1149.28 418.498 1149.28 416.211C1149.28 413.938 1149.65 412.196 1150.4 410.986C1151.15 409.776 1152.23 409.171 1153.64 409.171ZM1150.7 416.211C1150.7 417.833 1150.85 419.103 1151.14 420.021L1155.58 411.186C1155.11 410.561 1154.47 410.248 1153.64 410.248C1152.72 410.248 1152 410.74 1151.48 411.724C1150.96 412.695 1150.7 414.19 1150.7 416.211ZM1153.64 422.174C1154.57 422.174 1155.3 421.689 1155.82 420.719C1156.34 419.735 1156.6 418.232 1156.6 416.211C1156.6 414.496 1156.43 413.167 1156.1 412.223L1151.66 421.137C1152.14 421.829 1152.8 422.174 1153.64 422.174Z" fill="url(#paint92_linear_175_188)"/>
<path d="M1153.64 431.964C1155.07 431.964 1156.15 432.569 1156.88 433.779C1157.63 434.976 1158 436.717 1158 439.004C1158 441.291 1157.63 443.039 1156.88 444.249C1156.15 445.459 1155.07 446.064 1153.64 446.064C1152.23 446.064 1151.15 445.459 1150.4 444.249C1149.65 443.039 1149.28 441.291 1149.28 439.004C1149.28 436.731 1149.65 434.989 1150.4 433.779C1151.15 432.569 1152.23 431.964 1153.64 431.964ZM1150.7 439.004C1150.7 440.626 1150.85 441.896 1151.14 442.813L1155.58 433.978C1155.11 433.353 1154.47 433.041 1153.64 433.041C1152.72 433.041 1152 433.533 1151.48 434.517C1150.96 435.487 1150.7 436.983 1150.7 439.004ZM1153.64 444.967C1154.57 444.967 1155.3 444.482 1155.82 443.511C1156.34 442.528 1156.6 441.025 1156.6 439.004C1156.6 437.289 1156.43 435.959 1156.1 435.015L1151.66 443.93C1152.14 444.622 1152.8 444.967 1153.64 444.967Z" fill="url(#paint93_linear_175_188)"/>
</g>
<defs>
<filter id="filter0_f_175_188" x="-380.19" y="-368.19" width="2141.38" height="1500.38" filterUnits="userSpaceOnUse" color-interpolation-filters="sRGB">
<feFlood flood-opacity="0" result="BackgroundImageFix"/>
<feBlend mode="normal" in="SourceGraphic" in2="BackgroundImageFix" result="shape"/>
<feGaussianBlur stdDeviation="200.095" result="effect1_foregroundBlur_175_188"/>
</filter>
<linearGradient id="paint0_linear_175_188" x1="230.5" y1="618" x2="230.5" y2="929.381" gradientUnits="userSpaceOnUse">
<stop stop-color="#F7DD43"/>
<stop offset="1" stop-color="#F7DD43" stop-opacity="0"/>
</linearGradient>
<linearGradient id="paint1_linear_175_188" x1="230.5" y1="618" x2="230.5" y2="929.381" gradientUnits="userSpaceOnUse">
<stop stop-color="#F7DD43"/>
<stop offset="1" stop-color="#F7DD43" stop-opacity="0"/>
</linearGradient>
<linearGradient id="paint2_linear_175_188" x1="230.5" y1="618" x2="230.5" y2="929.381" gradientUnits="userSpaceOnUse">
<stop stop-color="#F7DD43"/>
<stop offset="1" stop-color="#F7DD43" stop-opacity="0"/>
</linearGradient>
<linearGradient id="paint3_linear_175_188" x1="230.5" y1="618" x2="230.5" y2="929.381" gradientUnits="userSpaceOnUse">
<stop stop-color="#F7DD43"/>
<stop offset="1" stop-color="#F7DD43" stop-opacity="0"/>
</linearGradient>
<linearGradient id="paint4_linear_175_188" x1="230.5" y1="618" x2="230.5" y2="929.381" gradientUnits="userSpaceOnUse">
<stop stop-color="#F7DD43"/>
<stop offset="1" stop-color="#F7DD43" stop-opacity="0"/>
</linearGradient>
<linearGradient id="paint5_linear_175_188" x1="230.5" y1="618" x2="230.5" y2="929.381" gradientUnits="userSpaceOnUse">
<stop stop-color="#F7DD43"/>
<stop offset="1" stop-color="#F7DD43" stop-opacity="0"/>
</linearGradient>
<linearGradient id="paint6_linear_175_188" x1="230.5" y1="618" x2="230.5" y2="929.381" gradientUnits="userSpaceOnUse">
<stop stop-color="#F7DD43"/>
<stop offset="1" stop-color="#F7DD43" stop-opacity="0"/>
</linearGradient>
<linearGradient id="paint7_linear_175_188" x1="230.5" y1="618" x2="230.5" y2="929.381" gradientUnits="userSpaceOnUse">
<stop stop-color="#F7DD43"/>
<stop offset="1" stop-color="#F7DD43" stop-opacity="0"/>
</linearGradient>
<linearGradient id="paint8_linear_175_188" x1="230.5" y1="618" x2="230.5" y2="929.381" gradientUnits="userSpaceOnUse">
<stop stop-color="#F7DD43"/>
<stop offset="1" stop-color="#F7DD43" stop-opacity="0"/>
</linearGradient>
<linearGradient id="paint9_linear_175_188" x1="230.5" y1="618" x2="230.5" y2="929.381" gradientUnits="userSpaceOnUse">
<stop stop-color="#F7DD43"/>
<stop offset="1" stop-color="#F7DD43" stop-opacity="0"/>
</linearGradient>
<linearGradient id="paint10_linear_175_188" x1="230.5" y1="618" x2="230.5" y2="929.381" gradientUnits="userSpaceOnUse">
<stop stop-color="#F7DD43"/>
<stop offset="1" stop-color="#F7DD43" stop-opacity="0"/>
</linearGradient>
<linearGradient id="paint11_linear_175_188" x1="230.5" y1="618" x2="230.5" y2="929.381" gradientUnits="userSpaceOnUse">
<stop stop-color="#F7DD43"/>
<stop offset="1" stop-color="#F7DD43" stop-opacity="0"/>
</linearGradient>
<linearGradient id="paint12_linear_175_188" x1="230.5" y1="618" x2="230.5" y2="929.381" gradientUnits="userSpaceOnUse">
<stop stop-color="#F7DD43"/>
<stop offset="1" stop-color="#F7DD43" stop-opacity="0"/>
</linearGradient>
<linearGradient id="paint13_linear_175_188" x1="230.5" y1="618" x2="230.5" y2="929.381" gradientUnits="userSpaceOnUse">
<stop stop-color="#F7DD43"/>
<stop offset="1" stop-color="#F7DD43" stop-opacity="0"/>
</linearGradient>
<linearGradient id="paint14_linear_175_188" x1="230.5" y1="618" x2="230.5" y2="929.381" gradientUnits="userSpaceOnUse">
<stop stop-color="#F7DD43"/>
<stop offset="1" stop-color="#F7DD43" stop-opacity="0"/>
</linearGradient>
<linearGradient id="paint15_linear_175_188" x1="230.5" y1="618" x2="230.5" y2="929.381" gradientUnits="userSpaceOnUse">
<stop stop-color="#F7DD43"/>
<stop offset="1" stop-color="#F7DD43" stop-opacity="0"/>
</linearGradient>
<linearGradient id="paint16_linear_175_188" x1="230.5" y1="618" x2="230.5" y2="929.381" gradientUnits="userSpaceOnUse">
<stop stop-color="#F7DD43"/>
<stop offset="1" stop-color="#F7DD43" stop-opacity="0"/>
</linearGradient>
<linearGradient id="paint17_linear_175_188" x1="230.5" y1="618" x2="230.5" y2="929.381" gradientUnits="userSpaceOnUse">
<stop stop-color="#F7DD43"/>
<stop offset="1" stop-color="#F7DD43" stop-opacity="0"/>
</linearGradient>
<linearGradient id="paint18_linear_175_188" x1="230.5" y1="618" x2="230.5" y2="929.381" gradientUnits="userSpaceOnUse">
<stop stop-color="#F7DD43"/>
<stop offset="1" stop-color="#F7DD43" stop-opacity="0"/>
</linearGradient>
<linearGradient id="paint19_linear_175_188" x1="230.5" y1="618" x2="230.5" y2="929.381" gradientUnits="userSpaceOnUse">
<stop stop-color="#F7DD43"/>
<stop offset="1" stop-color="#F7DD43" stop-opacity="0"/>
</linearGradient>
<linearGradient id="paint20_linear_175_188" x1="230.5" y1="618" x2="230.5" y2="929.381" gradientUnits="userSpaceOnUse">
<stop stop-color="#F7DD43"/>
<stop offset="1" stop-color="#F7DD43" stop-opacity="0"/>
</linearGradient>
<linearGradient id="paint21_linear_175_188" x1="230.5" y1="618" x2="230.5" y2="929.381" gradientUnits="userSpaceOnUse">
<stop stop-color="#F7DD43"/>
<stop offset="1" stop-color="#F7DD43" stop-opacity="0"/>
</linearGradient>
<linearGradient id="paint22_linear_175_188" x1="230.5" y1="618" x2="230.5" y2="929.381" gradientUnits="userSpaceOnUse">
<stop stop-color="#F7DD43"/>
<stop offset="1" stop-color="#F7DD43" stop-opacity="0"/>
</linearGradient>
<linearGradient id="paint23_linear_175_188" x1="230.5" y1="618" x2="230.5" y2="929.381" gradientUnits="userSpaceOnUse">
<stop stop-color="#F7DD43"/>
<stop offset="1" stop-color="#F7DD43" stop-opacity="0"/>
</linearGradient>
<linearGradient id="paint24_linear_175_188" x1="230.5" y1="618" x2="230.5" y2="929.381" gradientUnits="userSpaceOnUse">
<stop stop-color="#F7DD43"/>
<stop offset="1" stop-color="#F7DD43" stop-opacity="0"/>
</linearGradient>
<linearGradient id="paint25_linear_175_188" x1="230.5" y1="618" x2="230.5" y2="929.381" gradientUnits="userSpaceOnUse">
<stop stop-color="#F7DD43"/>
<stop offset="1" stop-color="#F7DD43" stop-opacity="0"/>
</linearGradient>
<linearGradient id="paint26_linear_175_188" x1="230.5" y1="618" x2="230.5" y2="929.381" gradientUnits="userSpaceOnUse">
<stop stop-color="#F7DD43"/>
<stop offset="1" stop-color="#F7DD43" stop-opacity="0"/>
</linearGradient>
<linearGradient id="paint27_linear_175_188" x1="230.5" y1="618" x2="230.5" y2="929.381" gradientUnits="userSpaceOnUse">
<stop stop-color="#F7DD43"/>
<stop offset="1" stop-color="#F7DD43" stop-opacity="0"/>
</linearGradient>
<linearGradient id="paint28_linear_175_188" x1="230.5" y1="618" x2="230.5" y2="929.381" gradientUnits="userSpaceOnUse">
<stop stop-color="#F7DD43"/>
<stop offset="1" stop-color="#F7DD43" stop-opacity="0"/>
</linearGradient>
<linearGradient id="paint29_linear_175_188" x1="230.5" y1="618" x2="230.5" y2="929.381" gradientUnits="userSpaceOnUse">
<stop stop-color="#F7DD43"/>
<stop offset="1" stop-color="#F7DD43" stop-opacity="0"/>
</linearGradient>
<linearGradient id="paint30_linear_175_188" x1="230.5" y1="618" x2="230.5" y2="929.381" gradientUnits="userSpaceOnUse">
<stop stop-color="#F7DD43"/>
<stop offset="1" stop-color="#F7DD43" stop-opacity="0"/>
</linearGradient>
<linearGradient id="paint31_linear_175_188" x1="230.5" y1="618" x2="230.5" y2="929.381" gradientUnits="userSpaceOnUse">
<stop stop-color="#F7DD43"/>
<stop offset="1" stop-color="#F7DD43" stop-opacity="0"/>
</linearGradient>
<linearGradient id="paint32_linear_175_188" x1="230.5" y1="618" x2="230.5" y2="929.381" gradientUnits="userSpaceOnUse">
<stop stop-color="#F7DD43"/>
<stop offset="1" stop-color="#F7DD43" stop-opacity="0"/>
</linearGradient>
<linearGradient id="paint33_linear_175_188" x1="230.5" y1="618" x2="230.5" y2="929.381" gradientUnits="userSpaceOnUse">
<stop stop-color="#F7DD43"/>
<stop offset="1" stop-color="#F7DD43" stop-opacity="0"/>
</linearGradient>
<linearGradient id="paint34_linear_175_188" x1="230.5" y1="618" x2="230.5" y2="929.381" gradientUnits="userSpaceOnUse">
<stop stop-color="#F7DD43"/>
<stop offset="1" stop-color="#F7DD43" stop-opacity="0"/>
</linearGradient>
<linearGradient id="paint35_linear_175_188" x1="230.5" y1="618" x2="230.5" y2="929.381" gradientUnits="userSpaceOnUse">
<stop stop-color="#F7DD43"/>
<stop offset="1" stop-color="#F7DD43" stop-opacity="0"/>
</linearGradient>
<linearGradient id="paint36_linear_175_188" x1="230.5" y1="618" x2="230.5" y2="929.381" gradientUnits="userSpaceOnUse">
<stop stop-color="#F7DD43"/>
<stop offset="1" stop-color="#F7DD43" stop-opacity="0"/>
</linearGradient>
<linearGradient id="paint37_linear_175_188" x1="230.5" y1="618" x2="230.5" y2="929.381" gradientUnits="userSpaceOnUse">
<stop stop-color="#F7DD43"/>
<stop offset="1" stop-color="#F7DD43" stop-opacity="0"/>
</linearGradient>
<linearGradient id="paint38_linear_175_188" x1="230.5" y1="618" x2="230.5" y2="929.381" gradientUnits="userSpaceOnUse">
<stop stop-color="#F7DD43"/>
<stop offset="1" stop-color="#F7DD43" stop-opacity="0"/>
</linearGradient>
<linearGradient id="paint39_linear_175_188" x1="230.5" y1="618" x2="230.5" y2="929.381" gradientUnits="userSpaceOnUse">
<stop stop-color="#F7DD43"/>
<stop offset="1" stop-color="#F7DD43" stop-opacity="0"/>
</linearGradient>
<linearGradient id="paint40_linear_175_188" x1="230.5" y1="618" x2="230.5" y2="929.381" gradientUnits="userSpaceOnUse">
<stop stop-color="#F7DD43"/>
<stop offset="1" stop-color="#F7DD43" stop-opacity="0"/>
</linearGradient>
<linearGradient id="paint41_linear_175_188" x1="230.5" y1="618" x2="230.5" y2="929.381" gradientUnits="userSpaceOnUse">
<stop stop-color="#F7DD43"/>
<stop offset="1" stop-color="#F7DD43" stop-opacity="0"/>
</linearGradient>
<linearGradient id="paint42_linear_175_188" x1="230.5" y1="618" x2="230.5" y2="929.381" gradientUnits="userSpaceOnUse">
<stop stop-color="#F7DD43"/>
<stop offset="1" stop-color="#F7DD43" stop-opacity="0"/>
</linearGradient>
<linearGradient id="paint43_linear_175_188" x1="230.5" y1="618" x2="230.5" y2="929.381" gradientUnits="userSpaceOnUse">
<stop stop-color="#F7DD43"/>
<stop offset="1" stop-color="#F7DD43" stop-opacity="0"/>
</linearGradient>
<linearGradient id="paint44_linear_175_188" x1="230.5" y1="618" x2="230.5" y2="929.381" gradientUnits="userSpaceOnUse">
<stop stop-color="#F7DD43"/>
<stop offset="1" stop-color="#F7DD43" stop-opacity="0"/>
</linearGradient>
<linearGradient id="paint45_linear_175_188" x1="230.5" y1="618" x2="230.5" y2="929.381" gradientUnits="userSpaceOnUse">
<stop stop-color="#F7DD43"/>
<stop offset="1" stop-color="#F7DD43" stop-opacity="0"/>
</linearGradient>
<linearGradient id="paint46_linear_175_188" x1="230.5" y1="618" x2="230.5" y2="929.381" gradientUnits="userSpaceOnUse">
<stop stop-color="#F7DD43"/>
<stop offset="1" stop-color="#F7DD43" stop-opacity="0"/>
</linearGradient>
<linearGradient id="paint47_linear_175_188" x1="1116.5" y1="318" x2="1116.5" y2="616.818" gradientUnits="userSpaceOnUse">
<stop stop-color="#F7DD43"/>
<stop offset="1" stop-color="#F7DD43" stop-opacity="0"/>
</linearGradient>
<linearGradient id="paint48_linear_175_188" x1="1116.5" y1="318" x2="1116.5" y2="616.818" gradientUnits="userSpaceOnUse">
<stop stop-color="#F7DD43"/>
<stop offset="1" stop-color="#F7DD43" stop-opacity="0"/>
</linearGradient>
<linearGradient id="paint49_linear_175_188" x1="1116.5" y1="318" x2="1116.5" y2="616.818" gradientUnits="userSpaceOnUse">
<stop stop-color="#F7DD43"/>
<stop offset="1" stop-color="#F7DD43" stop-opacity="0"/>
</linearGradient>
<linearGradient id="paint50_linear_175_188" x1="1116.5" y1="318" x2="1116.5" y2="616.818" gradientUnits="userSpaceOnUse">
<stop stop-color="#F7DD43"/>
<stop offset="1" stop-color="#F7DD43" stop-opacity="0"/>
</linearGradient>
<linearGradient id="paint51_linear_175_188" x1="1116.5" y1="318" x2="1116.5" y2="616.818" gradientUnits="userSpaceOnUse">
<stop stop-color="#F7DD43"/>
<stop offset="1" stop-color="#F7DD43" stop-opacity="0"/>
</linearGradient>
<linearGradient id="paint52_linear_175_188" x1="1116.5" y1="318" x2="1116.5" y2="616.818" gradientUnits="userSpaceOnUse">
<stop stop-color="#F7DD43"/>
<stop offset="1" stop-color="#F7DD43" stop-opacity="0"/>
</linearGradient>
<linearGradient id="paint53_linear_175_188" x1="1116.5" y1="318" x2="1116.5" y2="616.818" gradientUnits="userSpaceOnUse">
<stop stop-color="#F7DD43"/>
<stop offset="1" stop-color="#F7DD43" stop-opacity="0"/>
</linearGradient>
<linearGradient id="paint54_linear_175_188" x1="1116.5" y1="318" x2="1116.5" y2="616.818" gradientUnits="userSpaceOnUse">
<stop stop-color="#F7DD43"/>
<stop offset="1" stop-color="#F7DD43" stop-opacity="0"/>
</linearGradient>
<linearGradient id="paint55_linear_175_188" x1="1116.5" y1="318" x2="1116.5" y2="616.818" gradientUnits="userSpaceOnUse">
<stop stop-color="#F7DD43"/>
<stop offset="1" stop-color="#F7DD43" stop-opacity="0"/>
</linearGradient>
<linearGradient id="paint56_linear_175_188" x1="1116.5" y1="318" x2="1116.5" y2="616.818" gradientUnits="userSpaceOnUse">
<stop stop-color="#F7DD43"/>
<stop offset="1" stop-color="#F7DD43" stop-opacity="0"/>
</linearGradient>
<linearGradient id="paint57_linear_175_188" x1="1116.5" y1="318" x2="1116.5" y2="616.818" gradientUnits="userSpaceOnUse">
<stop stop-color="#F7DD43"/>
<stop offset="1" stop-color="#F7DD43" stop-opacity="0"/>
</linearGradient>
<linearGradient id="paint58_linear_175_188" x1="1116.5" y1="318" x2="1116.5" y2="616.818" gradientUnits="userSpaceOnUse">
<stop stop-color="#F7DD43"/>
<stop offset="1" stop-color="#F7DD43" stop-opacity="0"/>
</linearGradient>
<linearGradient id="paint59_linear_175_188" x1="1116.5" y1="318" x2="1116.5" y2="616.818" gradientUnits="userSpaceOnUse">
<stop stop-color="#F7DD43"/>
<stop offset="1" stop-color="#F7DD43" stop-opacity="0"/>
</linearGradient>
<linearGradient id="paint60_linear_175_188" x1="1116.5" y1="318" x2="1116.5" y2="616.818" gradientUnits="userSpaceOnUse">
<stop stop-color="#F7DD43"/>
<stop offset="1" stop-color="#F7DD43" stop-opacity="0"/>
</linearGradient>
<linearGradient id="paint61_linear_175_188" x1="1116.5" y1="318" x2="1116.5" y2="616.818" gradientUnits="userSpaceOnUse">
<stop stop-color="#F7DD43"/>
<stop offset="1" stop-color="#F7DD43" stop-opacity="0"/>
</linearGradient>
<linearGradient id="paint62_linear_175_188" x1="1116.5" y1="318" x2="1116.5" y2="616.818" gradientUnits="userSpaceOnUse">
<stop stop-color="#F7DD43"/>
<stop offset="1" stop-color="#F7DD43" stop-opacity="0"/>
</linearGradient>
<linearGradient id="paint63_linear_175_188" x1="1116.5" y1="318" x2="1116.5" y2="616.818" gradientUnits="userSpaceOnUse">
<stop stop-color="#F7DD43"/>
<stop offset="1" stop-color="#F7DD43" stop-opacity="0"/>
</linearGradient>
<linearGradient id="paint64_linear_175_188" x1="1116.5" y1="318" x2="1116.5" y2="616.818" gradientUnits="userSpaceOnUse">
<stop stop-color="#F7DD43"/>
<stop offset="1" stop-color="#F7DD43" stop-opacity="0"/>
</linearGradient>
<linearGradient id="paint65_linear_175_188" x1="1116.5" y1="318" x2="1116.5" y2="616.818" gradientUnits="userSpaceOnUse">
<stop stop-color="#F7DD43"/>
<stop offset="1" stop-color="#F7DD43" stop-opacity="0"/>
</linearGradient>
<linearGradient id="paint66_linear_175_188" x1="1116.5" y1="318" x2="1116.5" y2="616.818" gradientUnits="userSpaceOnUse">
<stop stop-color="#F7DD43"/>
<stop offset="1" stop-color="#F7DD43" stop-opacity="0"/>
</linearGradient>
<linearGradient id="paint67_linear_175_188" x1="1116.5" y1="318" x2="1116.5" y2="616.818" gradientUnits="userSpaceOnUse">
<stop stop-color="#F7DD43"/>
<stop offset="1" stop-color="#F7DD43" stop-opacity="0"/>
</linearGradient>
<linearGradient id="paint68_linear_175_188" x1="1116.5" y1="318" x2="1116.5" y2="616.818" gradientUnits="userSpaceOnUse">
<stop stop-color="#F7DD43"/>
<stop offset="1" stop-color="#F7DD43" stop-opacity="0"/>
</linearGradient>
<linearGradient id="paint69_linear_175_188" x1="1116.5" y1="318" x2="1116.5" y2="616.818" gradientUnits="userSpaceOnUse">
<stop stop-color="#F7DD43"/>
<stop offset="1" stop-color="#F7DD43" stop-opacity="0"/>
</linearGradient>
<linearGradient id="paint70_linear_175_188" x1="1116.5" y1="318" x2="1116.5" y2="616.818" gradientUnits="userSpaceOnUse">
<stop stop-color="#F7DD43"/>
<stop offset="1" stop-color="#F7DD43" stop-opacity="0"/>
</linearGradient>
<linearGradient id="paint71_linear_175_188" x1="1116.5" y1="318" x2="1116.5" y2="616.818" gradientUnits="userSpaceOnUse">
<stop stop-color="#F7DD43"/>
<stop offset="1" stop-color="#F7DD43" stop-opacity="0"/>
</linearGradient>
<linearGradient id="paint72_linear_175_188" x1="1116.5" y1="318" x2="1116.5" y2="616.818" gradientUnits="userSpaceOnUse">
<stop stop-color="#F7DD43"/>
<stop offset="1" stop-color="#F7DD43" stop-opacity="0"/>
</linearGradient>
<linearGradient id="paint73_linear_175_188" x1="1116.5" y1="318" x2="1116.5" y2="616.818" gradientUnits="userSpaceOnUse">
<stop stop-color="#F7DD43"/>
<stop offset="1" stop-color="#F7DD43" stop-opacity="0"/>
</linearGradient>
<linearGradient id="paint74_linear_175_188" x1="1116.5" y1="318" x2="1116.5" y2="616.818" gradientUnits="userSpaceOnUse">
<stop stop-color="#F7DD43"/>
<stop offset="1" stop-color="#F7DD43" stop-opacity="0"/>
</linearGradient>
<linearGradient id="paint75_linear_175_188" x1="1116.5" y1="318" x2="1116.5" y2="616.818" gradientUnits="userSpaceOnUse">
<stop stop-color="#F7DD43"/>
<stop offset="1" stop-color="#F7DD43" stop-opacity="0"/>
</linearGradient>
<linearGradient id="paint76_linear_175_188" x1="1116.5" y1="318" x2="1116.5" y2="616.818" gradientUnits="userSpaceOnUse">
<stop stop-color="#F7DD43"/>
<stop offset="1" stop-color="#F7DD43" stop-opacity="0"/>
</linearGradient>
<linearGradient id="paint77_linear_175_188" x1="1116.5" y1="318" x2="1116.5" y2="616.818" gradientUnits="userSpaceOnUse">
<stop stop-color="#F7DD43"/>
<stop offset="1" stop-color="#F7DD43" stop-opacity="0"/>
</linearGradient>
<linearGradient id="paint78_linear_175_188" x1="1116.5" y1="318" x2="1116.5" y2="616.818" gradientUnits="userSpaceOnUse">
<stop stop-color="#F7DD43"/>
<stop offset="1" stop-color="#F7DD43" stop-opacity="0"/>
</linearGradient>
<linearGradient id="paint79_linear_175_188" x1="1116.5" y1="318" x2="1116.5" y2="616.818" gradientUnits="userSpaceOnUse">
<stop stop-color="#F7DD43"/>
<stop offset="1" stop-color="#F7DD43" stop-opacity="0"/>
</linearGradient>
<linearGradient id="paint80_linear_175_188" x1="1116.5" y1="318" x2="1116.5" y2="616.818" gradientUnits="userSpaceOnUse">
<stop stop-color="#F7DD43"/>
<stop offset="1" stop-color="#F7DD43" stop-opacity="0"/>
</linearGradient>
<linearGradient id="paint81_linear_175_188" x1="1116.5" y1="318" x2="1116.5" y2="616.818" gradientUnits="userSpaceOnUse">
<stop stop-color="#F7DD43"/>
<stop offset="1" stop-color="#F7DD43" stop-opacity="0"/>
</linearGradient>
<linearGradient id="paint82_linear_175_188" x1="1116.5" y1="318" x2="1116.5" y2="616.818" gradientUnits="userSpaceOnUse">
<stop stop-color="#F7DD43"/>
<stop offset="1" stop-color="#F7DD43" stop-opacity="0"/>
</linearGradient>
<linearGradient id="paint83_linear_175_188" x1="1116.5" y1="318" x2="1116.5" y2="616.818" gradientUnits="userSpaceOnUse">
<stop stop-color="#F7DD43"/>
<stop offset="1" stop-color="#F7DD43" stop-opacity="0"/>
</linearGradient>
<linearGradient id="paint84_linear_175_188" x1="1116.5" y1="318" x2="1116.5" y2="616.818" gradientUnits="userSpaceOnUse">
<stop stop-color="#F7DD43"/>
<stop offset="1" stop-color="#F7DD43" stop-opacity="0"/>
</linearGradient>
<linearGradient id="paint85_linear_175_188" x1="1116.5" y1="318" x2="1116.5" y2="616.818" gradientUnits="userSpaceOnUse">
<stop stop-color="#F7DD43"/>
<stop offset="1" stop-color="#F7DD43" stop-opacity="0"/>
</linearGradient>
<linearGradient id="paint86_linear_175_188" x1="1116.5" y1="318" x2="1116.5" y2="616.818" gradientUnits="userSpaceOnUse">
<stop stop-color="#F7DD43"/>
<stop offset="1" stop-color="#F7DD43" stop-opacity="0"/>
</linearGradient>
<linearGradient id="paint87_linear_175_188" x1="1116.5" y1="318" x2="1116.5" y2="616.818" gradientUnits="userSpaceOnUse">
<stop stop-color="#F7DD43"/>
<stop offset="1" stop-color="#F7DD43" stop-opacity="0"/>
</linearGradient>
<linearGradient id="paint88_linear_175_188" x1="1116.5" y1="318" x2="1116.5" y2="616.818" gradientUnits="userSpaceOnUse">
<stop stop-color="#F7DD43"/>
<stop offset="1" stop-color="#F7DD43" stop-opacity="0"/>
</linearGradient>
<linearGradient id="paint89_linear_175_188" x1="1116.5" y1="318" x2="1116.5" y2="616.818" gradientUnits="userSpaceOnUse">
<stop stop-color="#F7DD43"/>
<stop offset="1" stop-color="#F7DD43" stop-opacity="0"/>
</linearGradient>
<linearGradient id="paint90_linear_175_188" x1="1116.5" y1="318" x2="1116.5" y2="616.818" gradientUnits="userSpaceOnUse">
<stop stop-color="#F7DD43"/>
<stop offset="1" stop-color="#F7DD43" stop-opacity="0"/>
</linearGradient>
<linearGradient id="paint91_linear_175_188" x1="1116.5" y1="318" x2="1116.5" y2="616.818" gradientUnits="userSpaceOnUse">
<stop stop-color="#F7DD43"/>
<stop offset="1" stop-color="#F7DD43" stop-opacity="0"/>
</linearGradient>
<linearGradient id="paint92_linear_175_188" x1="1116.5" y1="318" x2="1116.5" y2="616.818" gradientUnits="userSpaceOnUse">
<stop stop-color="#F7DD43"/>
<stop offset="1" stop-color="#F7DD43" stop-opacity="0"/>
</linearGradient>
<linearGradient id="paint93_linear_175_188" x1="1116.5" y1="318" x2="1116.5" y2="616.818" gradientUnits="userSpaceOnUse">
<stop stop-color="#F7DD43"/>
<stop offset="1" stop-color="#F7DD43" stop-opacity="0"/>
</linearGradient>
</defs>
</svg>
